<?xml version="1.0" standalone="no"?>
<!DOCTYPE svg PUBLIC "-//W3C//DTD SVG 20010904//EN"
 "http://www.w3.org/TR/2001/REC-SVG-20010904/DTD/svg10.dtd">
<svg version="1.0" xmlns="http://www.w3.org/2000/svg"
 width="512.000000pt" height="512.000000pt" viewBox="0 0 512.000000 512.000000"
 preserveAspectRatio="xMidYMid meet">

<g transform="translate(0.000000,512.000000) scale(0.100000,-0.100000)"
fill="#000000" stroke="none">
<path d="M105 5106 c-37 -17 -80 -62 -94 -99 -8 -20 -11 -574 -11 -1804 l0
-1777 21 -43 c14 -29 35 -52 63 -68 l43 -25 581 0 582 0 0 -582 0 -581 25 -43
c16 -28 39 -49 68 -63 43 -21 51 -21 848 -21 647 1 807 3 821 14 42 31 39 102
-5 125 -16 8 -238 12 -812 14 l-790 2 -3 568 -2 567 234 0 c243 0 272 4 315
43 55 51 61 82 61 335 l0 232 1458 -2 1457 -3 0 -870 0 -870 -816 -5 c-785 -5
-818 -6 -838 -24 -31 -28 -28 -79 5 -105 27 -21 32 -21 846 -21 665 0 825 3
851 14 43 17 95 78 102 118 3 18 4 432 3 919 l-3 886 -28 36 c-60 78 83 72
-1564 75 l-1472 2 -3 504 c-3 479 -4 505 -22 525 -25 27 -79 28 -106 1 -19
-19 -20 -33 -20 -525 l0 -505 -232 0 c-253 0 -284 -6 -335 -61 -39 -43 -43
-72 -43 -315 l0 -234 -567 2 -568 3 0 1760 0 1760 870 0 870 0 5 -810 c3 -445
8 -815 12 -822 12 -18 61 -31 85 -22 56 20 54 -14 51 870 -3 910 2 848 -75
906 l-36 28 -901 2 c-738 2 -906 0 -931 -11z m1793 -3433 l-3 -228 -227 -3
-228 -2 0 223 c0 123 3 227 7 230 3 4 107 7 230 7 l223 0 -2 -227z"/>
<path d="M2595 4730 c-30 -13 -303 -291 -314 -321 -20 -54 -4 -78 153 -235
161 -162 182 -174 243 -149 49 21 63 59 63 175 l0 102 68 -7 c515 -49 957
-317 1238 -751 139 -215 223 -463 249 -736 l7 -68 -97 0 c-117 0 -160 -15
-180 -63 -25 -61 -9 -88 147 -244 79 -78 156 -147 172 -153 52 -19 83 2 241
160 148 149 150 151 150 195 0 35 -6 50 -28 72 -26 27 -32 28 -141 31 l-115 4
-5 66 c-59 681 -485 1259 -1117 1517 -139 56 -351 106 -511 120 l-78 7 0 110
0 110 -34 34 c-35 35 -69 42 -111 24z m-10 -488 c-7 -7 -135 119 -135 132 0 6
30 41 68 79 l67 68 3 -137 c1 -75 0 -139 -3 -142z m1865 -1727 l-74 -75 -68
67 c-38 37 -68 71 -68 75 0 5 64 8 142 8 l142 0 -74 -75z"/>
</g>
</svg>
